<?xml version="1.0" standalone="no"?>
<!DOCTYPE svg PUBLIC "-//W3C//DTD SVG 20010904//EN"
 "http://www.w3.org/TR/2001/REC-SVG-20010904/DTD/svg10.dtd">
<svg version="1.0" xmlns="http://www.w3.org/2000/svg"
 width="142.000000pt" height="134.000000pt" viewBox="0 0 142.000000 134.000000"
 preserveAspectRatio="xMidYMid meet">
<metadata>
Created by potrace 1.10, written by Peter Selinger 2001-2011
</metadata>
<g transform="translate(0.000000,134.000000) scale(0.050000,-0.050000)"
fill="#000000" stroke="none">
<path d="M1050 2377 c-480 -213 -729 -612 -705 -1127 15 -304 59 -380 76 -130
31 467 419 891 871 951 l99 13 37 -115 c20 -63 99 -265 175 -447 77 -183 144
-345 149 -362 9 -25 -565 -44 -696 -22 -17 3 155 354 206 418 59 76 48 89 -67
77 -206 -21 -257 -36 -275 -80 -9 -24 -74 -164 -145 -313 -71 -148 -154 -333
-185 -410 l-55 -139 153 -145 c302 -285 702 -381 1057 -256 115 41 120 48 93
128 -26 74 -22 73 -135 19 -158 -77 -434 -77 -634 1 -248 95 -244 91 -187 241
l48 125 477 0 c262 0 478 -3 480 -7 12 -21 60 -161 87 -252 39 -129 35 -129
158 0 440 457 449 1100 21 1512 -89 86 -129 76 -66 -17 190 -283 237 -696 119
-1040 -45 -130 -68 -129 -99 4 -34 145 -134 415 -327 876 -89 215 -176 428
-193 475 l-31 85 -183 -1 c-161 0 -200 -8 -323 -62z"/>
</g>
</svg>
