<svg xmlns="http://www.w3.org/2000/svg" xmlns:xlink="http://www.w3.org/1999/xlink" width="1366" zoomAndPan="magnify" viewBox="0 0 1024.5 576" height="768" preserveAspectRatio="xMidYMid meet" version="1.0"><path fill="#3681e4" d="M 477.597656 154.375 C 423.566406 178.351562 395.539062 223.261719 398.238281 281.234375 C 399.929688 315.453125 404.882812 324.007812 406.796875 295.867188 C 410.285156 243.300781 453.957031 195.574219 504.835938 188.820312 L 515.980469 187.355469 L 520.144531 200.300781 C 522.398438 207.390625 531.289062 230.128906 539.84375 250.617188 C 548.511719 271.214844 556.054688 289.449219 556.617188 291.363281 C 557.628906 294.179688 493.019531 296.316406 478.273438 293.839844 C 476.359375 293.503906 495.71875 253.992188 501.460938 246.789062 C 508.101562 238.234375 506.863281 236.769531 493.917969 238.121094 C 470.730469 240.484375 464.988281 242.171875 462.964844 247.125 C 461.949219 249.828125 454.632812 265.585938 446.640625 282.359375 C 438.648438 299.019531 429.308594 319.84375 425.816406 328.507812 L 419.628906 344.15625 L 436.847656 360.476562 C 470.84375 392.558594 515.867188 403.363281 555.828125 389.292969 C 568.773438 384.679688 569.335938 383.890625 566.296875 374.886719 C 563.371094 366.554688 563.820312 366.667969 551.101562 372.746094 C 533.316406 381.414062 502.25 381.414062 479.734375 372.632812 C 451.820312 361.941406 452.269531 362.390625 458.6875 345.507812 L 464.089844 331.4375 L 517.78125 331.4375 C 547.273438 331.4375 571.585938 331.773438 571.8125 332.222656 C 573.164062 334.589844 578.566406 350.347656 581.605469 360.589844 C 585.996094 375.109375 585.546875 375.109375 599.390625 360.589844 C 648.917969 309.148438 649.929688 236.769531 601.753906 190.394531 C 591.734375 180.714844 587.234375 181.839844 594.324219 192.308594 C 615.710938 224.164062 621.003906 270.652344 607.71875 309.375 C 602.65625 324.007812 600.066406 323.894531 596.578125 308.921875 C 592.75 292.601562 581.492188 262.210938 559.769531 210.316406 C 549.75 186.117188 539.957031 162.140625 538.042969 156.851562 L 534.554688 147.28125 L 513.953125 147.394531 C 495.832031 147.394531 491.441406 148.296875 477.597656 154.375 Z M 477.597656 154.375 " fill-opacity="1" fill-rule="nonzero"/></svg>